<svg xmlns="http://www.w3.org/2000/svg" viewBox="0 0 810.00 320.00">
  <style>
    .key-bg { fill: #f5f5f5; stroke: #d4d4d4; stroke-width: 1; }
    .key-index { fill: #171717; font-family: ui-monospace, SFMono-Regular, "SF Mono", Menlo, Consolas, "Liberation Mono", monospace; font-weight: 700; text-anchor: middle; dominant-baseline: central; }
    .key-part { font-family: system-ui, -apple-system, BlinkMacSystemFont, "Segoe UI", Roboto, sans-serif; text-anchor: middle; dominant-baseline: central; }
    @media (prefers-color-scheme: dark) {
      .key-bg { fill: #2a2a2a; stroke: #404040; }
      .key-index { fill: #e5e5e5; }
    }
    .key-bg.part-0 { stroke: #f59e0b; }
    .key-part.part-0 { fill: #f59e0b; }
    .key-bg.part-1 { stroke: #14b8a6; }
    .key-part.part-1 { fill: #14b8a6; }
  </style>
  <g>
    <path class="key-bg part-0" d="M 26.00,22.00 L 84.00,22.00 Q 88.00,22.00 88.00,26.00 L 88.00,84.00 Q 88.00,88.00 84.00,88.00 L 26.00,88.00 Q 22.00,88.00 22.00,84.00 L 22.00,26.00 Q 22.00,22.00 26.00,22.00 Z" />
    <path class="key-bg part-0" d="M 96.00,22.00 L 154.00,22.00 Q 158.00,22.00 158.00,26.00 L 158.00,84.00 Q 158.00,88.00 154.00,88.00 L 96.00,88.00 Q 92.00,88.00 92.00,84.00 L 92.00,26.00 Q 92.00,22.00 96.00,22.00 Z" />
    <path class="key-bg part-0" d="M 166.00,22.00 L 224.00,22.00 Q 228.00,22.00 228.00,26.00 L 228.00,84.00 Q 228.00,88.00 224.00,88.00 L 166.00,88.00 Q 162.00,88.00 162.00,84.00 L 162.00,26.00 Q 162.00,22.00 166.00,22.00 Z" />
    <path class="key-bg part-0" d="M 236.00,22.00 L 294.00,22.00 Q 298.00,22.00 298.00,26.00 L 298.00,84.00 Q 298.00,88.00 294.00,88.00 L 236.00,88.00 Q 232.00,88.00 232.00,84.00 L 232.00,26.00 Q 232.00,22.00 236.00,22.00 Z" />
    <path class="key-bg part-0" d="M 306.00,22.00 L 364.00,22.00 Q 368.00,22.00 368.00,26.00 L 368.00,84.00 Q 368.00,88.00 364.00,88.00 L 306.00,88.00 Q 302.00,88.00 302.00,84.00 L 302.00,26.00 Q 302.00,22.00 306.00,22.00 Z" />
    <path class="key-bg part-1" d="M 446.00,22.00 L 504.00,22.00 Q 508.00,22.00 508.00,26.00 L 508.00,84.00 Q 508.00,88.00 504.00,88.00 L 446.00,88.00 Q 442.00,88.00 442.00,84.00 L 442.00,26.00 Q 442.00,22.00 446.00,22.00 Z" />
    <path class="key-bg part-1" d="M 516.00,22.00 L 574.00,22.00 Q 578.00,22.00 578.00,26.00 L 578.00,84.00 Q 578.00,88.00 574.00,88.00 L 516.00,88.00 Q 512.00,88.00 512.00,84.00 L 512.00,26.00 Q 512.00,22.00 516.00,22.00 Z" />
    <path class="key-bg part-1" d="M 586.00,22.00 L 644.00,22.00 Q 648.00,22.00 648.00,26.00 L 648.00,84.00 Q 648.00,88.00 644.00,88.00 L 586.00,88.00 Q 582.00,88.00 582.00,84.00 L 582.00,26.00 Q 582.00,22.00 586.00,22.00 Z" />
    <path class="key-bg part-1" d="M 656.00,22.00 L 714.00,22.00 Q 718.00,22.00 718.00,26.00 L 718.00,84.00 Q 718.00,88.00 714.00,88.00 L 656.00,88.00 Q 652.00,88.00 652.00,84.00 L 652.00,26.00 Q 652.00,22.00 656.00,22.00 Z" />
    <path class="key-bg part-1" d="M 726.00,22.00 L 784.00,22.00 Q 788.00,22.00 788.00,26.00 L 788.00,84.00 Q 788.00,88.00 784.00,88.00 L 726.00,88.00 Q 722.00,88.00 722.00,84.00 L 722.00,26.00 Q 722.00,22.00 726.00,22.00 Z" />
    <path class="key-bg part-0" d="M 26.00,92.00 L 84.00,92.00 Q 88.00,92.00 88.00,96.00 L 88.00,154.00 Q 88.00,158.00 84.00,158.00 L 26.00,158.00 Q 22.00,158.00 22.00,154.00 L 22.00,96.00 Q 22.00,92.00 26.00,92.00 Z" />
    <path class="key-bg part-0" d="M 96.00,92.00 L 154.00,92.00 Q 158.00,92.00 158.00,96.00 L 158.00,154.00 Q 158.00,158.00 154.00,158.00 L 96.00,158.00 Q 92.00,158.00 92.00,154.00 L 92.00,96.00 Q 92.00,92.00 96.00,92.00 Z" />
    <path class="key-bg part-0" d="M 166.00,92.00 L 224.00,92.00 Q 228.00,92.00 228.00,96.00 L 228.00,154.00 Q 228.00,158.00 224.00,158.00 L 166.00,158.00 Q 162.00,158.00 162.00,154.00 L 162.00,96.00 Q 162.00,92.00 166.00,92.00 Z" />
    <path class="key-bg part-0" d="M 236.00,92.00 L 294.00,92.00 Q 298.00,92.00 298.00,96.00 L 298.00,154.00 Q 298.00,158.00 294.00,158.00 L 236.00,158.00 Q 232.00,158.00 232.00,154.00 L 232.00,96.00 Q 232.00,92.00 236.00,92.00 Z" />
    <path class="key-bg part-0" d="M 306.00,92.00 L 364.00,92.00 Q 368.00,92.00 368.00,96.00 L 368.00,154.00 Q 368.00,158.00 364.00,158.00 L 306.00,158.00 Q 302.00,158.00 302.00,154.00 L 302.00,96.00 Q 302.00,92.00 306.00,92.00 Z" />
    <path class="key-bg part-1" d="M 446.00,92.00 L 504.00,92.00 Q 508.00,92.00 508.00,96.00 L 508.00,154.00 Q 508.00,158.00 504.00,158.00 L 446.00,158.00 Q 442.00,158.00 442.00,154.00 L 442.00,96.00 Q 442.00,92.00 446.00,92.00 Z" />
    <path class="key-bg part-1" d="M 516.00,92.00 L 574.00,92.00 Q 578.00,92.00 578.00,96.00 L 578.00,154.00 Q 578.00,158.00 574.00,158.00 L 516.00,158.00 Q 512.00,158.00 512.00,154.00 L 512.00,96.00 Q 512.00,92.00 516.00,92.00 Z" />
    <path class="key-bg part-1" d="M 586.00,92.00 L 644.00,92.00 Q 648.00,92.00 648.00,96.00 L 648.00,154.00 Q 648.00,158.00 644.00,158.00 L 586.00,158.00 Q 582.00,158.00 582.00,154.00 L 582.00,96.00 Q 582.00,92.00 586.00,92.00 Z" />
    <path class="key-bg part-1" d="M 656.00,92.00 L 714.00,92.00 Q 718.00,92.00 718.00,96.00 L 718.00,154.00 Q 718.00,158.00 714.00,158.00 L 656.00,158.00 Q 652.00,158.00 652.00,154.00 L 652.00,96.00 Q 652.00,92.00 656.00,92.00 Z" />
    <path class="key-bg part-1" d="M 726.00,92.00 L 784.00,92.00 Q 788.00,92.00 788.00,96.00 L 788.00,154.00 Q 788.00,158.00 784.00,158.00 L 726.00,158.00 Q 722.00,158.00 722.00,154.00 L 722.00,96.00 Q 722.00,92.00 726.00,92.00 Z" />
    <path class="key-bg part-0" d="M 26.00,162.00 L 84.00,162.00 Q 88.00,162.00 88.00,166.00 L 88.00,224.00 Q 88.00,228.00 84.00,228.00 L 26.00,228.00 Q 22.00,228.00 22.00,224.00 L 22.00,166.00 Q 22.00,162.00 26.00,162.00 Z" />
    <path class="key-bg part-0" d="M 96.00,162.00 L 154.00,162.00 Q 158.00,162.00 158.00,166.00 L 158.00,224.00 Q 158.00,228.00 154.00,228.00 L 96.00,228.00 Q 92.00,228.00 92.00,224.00 L 92.00,166.00 Q 92.00,162.00 96.00,162.00 Z" />
    <path class="key-bg part-0" d="M 166.00,162.00 L 224.00,162.00 Q 228.00,162.00 228.00,166.00 L 228.00,224.00 Q 228.00,228.00 224.00,228.00 L 166.00,228.00 Q 162.00,228.00 162.00,224.00 L 162.00,166.00 Q 162.00,162.00 166.00,162.00 Z" />
    <path class="key-bg part-0" d="M 236.00,162.00 L 294.00,162.00 Q 298.00,162.00 298.00,166.00 L 298.00,224.00 Q 298.00,228.00 294.00,228.00 L 236.00,228.00 Q 232.00,228.00 232.00,224.00 L 232.00,166.00 Q 232.00,162.00 236.00,162.00 Z" />
    <path class="key-bg part-0" d="M 306.00,162.00 L 364.00,162.00 Q 368.00,162.00 368.00,166.00 L 368.00,224.00 Q 368.00,228.00 364.00,228.00 L 306.00,228.00 Q 302.00,228.00 302.00,224.00 L 302.00,166.00 Q 302.00,162.00 306.00,162.00 Z" />
    <path class="key-bg part-1" d="M 446.00,162.00 L 504.00,162.00 Q 508.00,162.00 508.00,166.00 L 508.00,224.00 Q 508.00,228.00 504.00,228.00 L 446.00,228.00 Q 442.00,228.00 442.00,224.00 L 442.00,166.00 Q 442.00,162.00 446.00,162.00 Z" />
    <path class="key-bg part-1" d="M 516.00,162.00 L 574.00,162.00 Q 578.00,162.00 578.00,166.00 L 578.00,224.00 Q 578.00,228.00 574.00,228.00 L 516.00,228.00 Q 512.00,228.00 512.00,224.00 L 512.00,166.00 Q 512.00,162.00 516.00,162.00 Z" />
    <path class="key-bg part-1" d="M 586.00,162.00 L 644.00,162.00 Q 648.00,162.00 648.00,166.00 L 648.00,224.00 Q 648.00,228.00 644.00,228.00 L 586.00,228.00 Q 582.00,228.00 582.00,224.00 L 582.00,166.00 Q 582.00,162.00 586.00,162.00 Z" />
    <path class="key-bg part-1" d="M 656.00,162.00 L 714.00,162.00 Q 718.00,162.00 718.00,166.00 L 718.00,224.00 Q 718.00,228.00 714.00,228.00 L 656.00,228.00 Q 652.00,228.00 652.00,224.00 L 652.00,166.00 Q 652.00,162.00 656.00,162.00 Z" />
    <path class="key-bg part-1" d="M 726.00,162.00 L 784.00,162.00 Q 788.00,162.00 788.00,166.00 L 788.00,224.00 Q 788.00,228.00 784.00,228.00 L 726.00,228.00 Q 722.00,228.00 722.00,224.00 L 722.00,166.00 Q 722.00,162.00 726.00,162.00 Z" />
    <path class="key-bg part-0" d="M 166.00,232.00 L 224.00,232.00 Q 228.00,232.00 228.00,236.00 L 228.00,294.00 Q 228.00,298.00 224.00,298.00 L 166.00,298.00 Q 162.00,298.00 162.00,294.00 L 162.00,236.00 Q 162.00,232.00 166.00,232.00 Z" />
    <path class="key-bg part-0" d="M 236.00,232.00 L 294.00,232.00 Q 298.00,232.00 298.00,236.00 L 298.00,294.00 Q 298.00,298.00 294.00,298.00 L 236.00,298.00 Q 232.00,298.00 232.00,294.00 L 232.00,236.00 Q 232.00,232.00 236.00,232.00 Z" />
    <path class="key-bg part-0" d="M 306.00,232.00 L 364.00,232.00 Q 368.00,232.00 368.00,236.00 L 368.00,294.00 Q 368.00,298.00 364.00,298.00 L 306.00,298.00 Q 302.00,298.00 302.00,294.00 L 302.00,236.00 Q 302.00,232.00 306.00,232.00 Z" />
    <path class="key-bg part-1" d="M 446.00,232.00 L 504.00,232.00 Q 508.00,232.00 508.00,236.00 L 508.00,294.00 Q 508.00,298.00 504.00,298.00 L 446.00,298.00 Q 442.00,298.00 442.00,294.00 L 442.00,236.00 Q 442.00,232.00 446.00,232.00 Z" />
    <path class="key-bg part-1" d="M 516.00,232.00 L 574.00,232.00 Q 578.00,232.00 578.00,236.00 L 578.00,294.00 Q 578.00,298.00 574.00,298.00 L 516.00,298.00 Q 512.00,298.00 512.00,294.00 L 512.00,236.00 Q 512.00,232.00 516.00,232.00 Z" />
    <path class="key-bg part-1" d="M 586.00,232.00 L 644.00,232.00 Q 648.00,232.00 648.00,236.00 L 648.00,294.00 Q 648.00,298.00 644.00,298.00 L 586.00,298.00 Q 582.00,298.00 582.00,294.00 L 582.00,236.00 Q 582.00,232.00 586.00,232.00 Z" />
  </g>
  <g>
    <text class="key-index" x="55.00" y="43.36" font-size="26">0</text>
    <text class="key-part part-0" x="55.00" y="70.64" font-size="18">left</text>
    <text class="key-index" x="125.00" y="43.36" font-size="26">1</text>
    <text class="key-part part-0" x="125.00" y="70.64" font-size="18">left</text>
    <text class="key-index" x="195.00" y="43.36" font-size="26">2</text>
    <text class="key-part part-0" x="195.00" y="70.64" font-size="18">left</text>
    <text class="key-index" x="265.00" y="43.36" font-size="26">3</text>
    <text class="key-part part-0" x="265.00" y="70.64" font-size="18">left</text>
    <text class="key-index" x="335.00" y="43.36" font-size="26">4</text>
    <text class="key-part part-0" x="335.00" y="70.64" font-size="18">left</text>
    <text class="key-index" x="475.00" y="43.36" font-size="26">5</text>
    <text class="key-part part-1" x="475.00" y="70.64" font-size="18">right</text>
    <text class="key-index" x="545.00" y="43.36" font-size="26">6</text>
    <text class="key-part part-1" x="545.00" y="70.64" font-size="18">right</text>
    <text class="key-index" x="615.00" y="43.36" font-size="26">7</text>
    <text class="key-part part-1" x="615.00" y="70.64" font-size="18">right</text>
    <text class="key-index" x="685.00" y="43.36" font-size="26">8</text>
    <text class="key-part part-1" x="685.00" y="70.64" font-size="18">right</text>
    <text class="key-index" x="755.00" y="43.36" font-size="26">9</text>
    <text class="key-part part-1" x="755.00" y="70.64" font-size="18">right</text>
    <text class="key-index" x="55.00" y="113.36" font-size="26">10</text>
    <text class="key-part part-0" x="55.00" y="140.64" font-size="18">left</text>
    <text class="key-index" x="125.00" y="113.36" font-size="26">11</text>
    <text class="key-part part-0" x="125.00" y="140.64" font-size="18">left</text>
    <text class="key-index" x="195.00" y="113.36" font-size="26">12</text>
    <text class="key-part part-0" x="195.00" y="140.64" font-size="18">left</text>
    <text class="key-index" x="265.00" y="113.36" font-size="26">13</text>
    <text class="key-part part-0" x="265.00" y="140.64" font-size="18">left</text>
    <text class="key-index" x="335.00" y="113.36" font-size="26">14</text>
    <text class="key-part part-0" x="335.00" y="140.64" font-size="18">left</text>
    <text class="key-index" x="475.00" y="113.36" font-size="26">15</text>
    <text class="key-part part-1" x="475.00" y="140.64" font-size="18">right</text>
    <text class="key-index" x="545.00" y="113.36" font-size="26">16</text>
    <text class="key-part part-1" x="545.00" y="140.64" font-size="18">right</text>
    <text class="key-index" x="615.00" y="113.36" font-size="26">17</text>
    <text class="key-part part-1" x="615.00" y="140.64" font-size="18">right</text>
    <text class="key-index" x="685.00" y="113.36" font-size="26">18</text>
    <text class="key-part part-1" x="685.00" y="140.64" font-size="18">right</text>
    <text class="key-index" x="755.00" y="113.36" font-size="26">19</text>
    <text class="key-part part-1" x="755.00" y="140.64" font-size="18">right</text>
    <text class="key-index" x="55.00" y="183.36" font-size="26">20</text>
    <text class="key-part part-0" x="55.00" y="210.64" font-size="18">left</text>
    <text class="key-index" x="125.00" y="183.36" font-size="26">21</text>
    <text class="key-part part-0" x="125.00" y="210.64" font-size="18">left</text>
    <text class="key-index" x="195.00" y="183.36" font-size="26">22</text>
    <text class="key-part part-0" x="195.00" y="210.64" font-size="18">left</text>
    <text class="key-index" x="265.00" y="183.36" font-size="26">23</text>
    <text class="key-part part-0" x="265.00" y="210.64" font-size="18">left</text>
    <text class="key-index" x="335.00" y="183.36" font-size="26">24</text>
    <text class="key-part part-0" x="335.00" y="210.64" font-size="18">left</text>
    <text class="key-index" x="475.00" y="183.36" font-size="26">25</text>
    <text class="key-part part-1" x="475.00" y="210.64" font-size="18">right</text>
    <text class="key-index" x="545.00" y="183.36" font-size="26">26</text>
    <text class="key-part part-1" x="545.00" y="210.64" font-size="18">right</text>
    <text class="key-index" x="615.00" y="183.36" font-size="26">27</text>
    <text class="key-part part-1" x="615.00" y="210.64" font-size="18">right</text>
    <text class="key-index" x="685.00" y="183.36" font-size="26">28</text>
    <text class="key-part part-1" x="685.00" y="210.64" font-size="18">right</text>
    <text class="key-index" x="755.00" y="183.36" font-size="26">29</text>
    <text class="key-part part-1" x="755.00" y="210.64" font-size="18">right</text>
    <text class="key-index" x="195.00" y="253.36" font-size="26">30</text>
    <text class="key-part part-0" x="195.00" y="280.64" font-size="18">left</text>
    <text class="key-index" x="265.00" y="253.36" font-size="26">31</text>
    <text class="key-part part-0" x="265.00" y="280.64" font-size="18">left</text>
    <text class="key-index" x="335.00" y="253.36" font-size="26">32</text>
    <text class="key-part part-0" x="335.00" y="280.64" font-size="18">left</text>
    <text class="key-index" x="475.00" y="253.36" font-size="26">33</text>
    <text class="key-part part-1" x="475.00" y="280.64" font-size="18">right</text>
    <text class="key-index" x="545.00" y="253.36" font-size="26">34</text>
    <text class="key-part part-1" x="545.00" y="280.64" font-size="18">right</text>
    <text class="key-index" x="615.00" y="253.36" font-size="26">35</text>
    <text class="key-part part-1" x="615.00" y="280.64" font-size="18">right</text>
  </g>
</svg>
